# xmcd CD database file
#
# Track frame offsets:
#	150
#	17852
#	33377
#	45340
#	62927
#	81227
#	92512
#	115012
#	129075
#	141787
#	156827
#	169690
#	182702
#	198265
#	209250
#
# Disc length: 3005 seconds
#
# Revision: 4
# Processed by: cddbd v1.5.2PL0 Copyright (c) Steve Scherf et al.
# Submitted via: CDex 1.72
#
DISCID=c00bbb0f
DTITLE=Barton, Lou Ann (USA-Read My Lips-bls) - Read My Lips
DYEAR=1989
DGENRE=Blues
TTITLE0=Sugar Coated Love
TTITLE1=You'll Lose a Good Thing
TTITLE2=Sexy Ways
TTITLE3=Shake a Hand
TTITLE4=Good Lover
TTITLE5=Mean Mean Man
TTITLE6=Shake Your Hips
TTITLE7=Te Ni Nee Ni Nu
TTITLE8=Can't Believe You Want To Leave
TTITLE9=You Can Have My Husband
TTITLE10=It's Raining
TTITLE11=Rocket In My Pocket
TTITLE12=I Wonder Why
TTITLE13=Let's Have a Party
TTITLE14=High Time We Went
EXTD=LABEL =Antone's Records\nID =74217\nUPC =01046-74217-20\nCOPYRIGHT =1989\n---\nDISC: 1\nLABEL: Discovery\nENSORECORD: 50383 YEAR: 1989
EXTT0=PERFORMER: Lou Ann Barton
EXTT1=PERFORMER: Lou Ann Barton
EXTT2=PERFORMER: Lou Ann Barton
EXTT3=PERFORMER: Lou Ann Barton
EXTT4=PERFORMER: Lou Ann Barton
EXTT5=PERFORMER: Lou Ann Barton
EXTT6=PERFORMER: Lou Ann Barton
EXTT7=PERFORMER: Lou Ann Barton
EXTT8=PERFORMER: Lou Ann Barton
EXTT9=PERFORMER: Lou Ann Barton
EXTT10=PERFORMER: Lou Ann Barton
EXTT11=PERFORMER: Lou Ann Barton
EXTT12=PERFORMER: Lou Ann Barton
EXTT13=PERFORMER: Lou Ann Barton
EXTT14=PERFORMER: Lou Ann Barton
PLAYORDER=
